<?xml version="1.0" encoding="utf-8"?>
<!-- Generator: Adobe Illustrator 24.2.3, SVG Export Plug-In . SVG Version: 6.00 Build 0)  -->
<svg version="1.1" id="Capa_1" xmlns="http://www.w3.org/2000/svg" xmlns:xlink="http://www.w3.org/1999/xlink" x="0px" y="0px"
	 viewBox="0 0 32 32" style="enable-background:new 0 0 32 32;" xml:space="preserve">
<style type="text/css">
	.st0{fill:#00599C;}
</style>
<g>
	<path class="st0" d="M28,24c-0.6,0-1,0.4-1,1v5H5v-5c0-0.6-0.4-1-1-1s-1,0.4-1,1v6c0,0.6,0.4,1,1,1h24c0.6,0,1-0.4,1-1v-6
		C29,24.4,28.6,24,28,24z"/>
	<path class="st0" d="M15.3,22.9c0.2,0.2,0.4,0.3,0.7,0.3s0.5-0.1,0.7-0.3l5.7-5.7c0.4-0.4,0.4-1,0-1.4s-1-0.4-1.4,0L17,19.7V1
		c0-0.6-0.4-1-1-1s-1,0.4-1,1v18.7l-4-4c-0.4-0.4-1-0.4-1.4,0s-0.4,1,0,1.4L15.3,22.9z"/>
</g>
</svg>
